<svg version="1.1" xmlns="http://www.w3.org/2000/svg" x="0px" y="0px" width="64px" height="64px" viewBox="0 0 64 64" enable-background="new 0 0 64 64">
<g><g>
<g><path fill="#231F20" d="M14.105,37.975c2.85,0,5.168,2.318,5.168,5.168s-2.318,5.167-5.168,5.167s-5.167-2.317-5.167-5.167 S11.255,37.975,14.105,37.975 M14.105,33.635c-5.242,0-9.507,4.267-9.507,9.508s4.265,9.507,9.507,9.507 c5.243,0,9.507-4.266,9.507-9.507S19.348,33.635,14.105,33.635L14.105,33.635z"/></g>
<g><path fill="#231F20" d="M49.893,37.975c2.852,0,5.17,2.318,5.17,5.168s-2.318,5.167-5.17,5.167c-2.85,0-5.168-2.317-5.168-5.167 S47.043,37.975,49.893,37.975 M49.893,33.635c-5.242,0-9.507,4.267-9.507,9.508s4.265,9.507,9.507,9.507 c5.244,0,9.509-4.266,9.509-9.507S55.137,33.635,49.893,33.635L49.893,33.635z"/></g>
<g><path fill="#231F20" d="M38.538,27.791l1.286,0.284c0.906,0.197,1.789,0.154,2.592-0.129c1.083,1.315,2.173,2.624,3.253,3.886 c0.67,0.966,2.783,1.042,2.803,1.042h7.313c1.562,0,2.832-1.27,2.832-2.832c0-1.56-1.271-2.831-2.832-2.831h-6.267 c-1.346-1.583-2.668-3.184-3.986-4.791c-0.297-1.701-1.488-2.897-3.293-3.293l-15.452-3.402 c-0.461-0.102-0.919-0.152-1.357-0.152c-2.731,0-4.44,1.954-4.892,3.797c-0.348,0.61-0.148,1.264,0.029,1.843 c0.06,0.191,0.119,0.387,0.158,0.583l4.856,24.292c0.315,1.577,1.71,2.723,3.316,2.723c0.223,0,0.448-0.022,0.667-0.067 c1.832-0.366,3.023-2.152,2.656-3.985l-0.414-2.076c0.562,0.076,1.121,0.002,1.638-0.196c6.227-2.397,7.148-6.483,7.145-8.709 C40.586,31.862,39.88,29.812,38.538,27.791z M32.811,37.051c-0.436,0.168-2.036,0.938-2.258,1.132l-0.625,0.544l-0.166-0.803 l-2.238-11.853l0.626-0.014c2.917,0,7.444,4.723,7.448,7.107C35.602,34.214,35.243,36.114,32.811,37.051z"/></g>
</g>
<g><path fill="#231F20" d="M49.896,21.635c2.833,0,5.141-2.307,5.141-5.143c0-2.835-2.308-5.142-5.141-5.142 c-2.838,0-5.146,2.307-5.146,5.142C44.75,19.328,47.058,21.635,49.896,21.635z"/></g>
</g>
</svg>