<svg version="1.1" xmlns="http://www.w3.org/2000/svg" x="0px" y="0px" viewBox="0 0 64 64" style="enable-background:new 0 0 64 64;">
<g>
<path d="M8.638,42.824l-5.133,4.281c-0.598,0.498-0.678,1.386-0.181,1.984c0.28,0.334,0.681,0.507,1.084,0.507 c0.318,0,0.639-0.108,0.901-0.327l5.134-4.281c0.325-0.273,0.991-0.312,1.348-0.081l5.303,3.44c1.371,0.891,3.388,0.818,4.69-0.164 l4.281-3.224c0.357-0.271,1.108-0.303,1.487-0.062l5.512,3.481c1.339,0.845,3.352,0.833,4.683-0.029l5.302-3.441 c0.4-0.258,1.205-0.254,1.601,0.008l5.177,3.413c1.362,0.901,3.382,0.848,4.694-0.122l5.909-4.368 c0.626-0.463,0.757-1.346,0.295-1.971c-0.462-0.627-1.345-0.759-1.971-0.295l-5.909,4.367c-0.354,0.262-1.095,0.284-1.465,0.038 l-5.178-3.414c-1.332-0.88-3.349-0.89-4.687-0.02l-5.303,3.441c-0.407,0.262-1.235,0.268-1.645,0.01l-5.511-3.48 c-1.375-0.866-3.39-0.783-4.689,0.194l-4.28,3.224c-0.354,0.268-1.089,0.293-1.461,0.051l-5.302-3.438 C11.931,41.637,9.914,41.758,8.638,42.824z"/>
<path d="M21.804,30.94c-4.345,0-7.867,3.523-7.867,7.866c0,0.607,0.075,1.196,0.205,1.765l4.797,3.11c0,0,0.062,0.015,0.164,0.015 c0.122,0,0.213-0.027,0.237-0.04l4.264-3.212c1.567-1.181,4.09-1.288,5.755-0.238l0.164,0.104c0.094-0.487,0.147-0.989,0.147-1.503 C29.67,34.463,26.148,30.94,21.804,30.94z"/>
<path d="M36.797,31.934l-2.496-11.738c-0.278-1.307-1.386-2.272-2.719-2.368L15.9,16.695c-1.649-0.119-3.089,1.124-3.208,2.776 c-0.119,1.653,1.123,3.089,2.776,3.208l13.433,0.97l1.533,7.209c-0.099,0.088-0.713,0.635-1.056,0.911 c-0.279,0.226-0.559,0.456-0.823,0.696c1.56,1.66,2.524,3.888,2.524,6.341c0,0.783-0.104,1.54-0.288,2.268l4.132,2.608 c0.05,0.025,0.576,0.025,0.639-0.009l5.296-3.435c1.598-1.038,4.127-1.026,5.716,0.024l5.177,3.412 c0.016,0,0.365,0.002,0.407-0.022l4.81-3.556c-2.068-1.418-12.966-5-20.13-7.269C36.863,32.535,36.861,32.237,36.797,31.934z"/>
</g>
</svg>